<svg width="7" height="10" viewBox="0 0 7 10" fill="none" xmlns="http://www.w3.org/2000/svg">
<path d="M0.969834 0.226975C0.829231 0.367621 0.750244 0.558352 0.750244 0.757225C0.750244 0.956098 0.829231 1.14683 0.969834 1.28748L4.68233 4.99998L0.969834 8.71247C0.833216 8.85393 0.757619 9.04338 0.759328 9.24003C0.761037 9.43667 0.839914 9.62478 0.97897 9.76384C1.11803 9.9029 1.30614 9.98177 1.50278 9.98348C1.69943 9.98519 1.88888 9.90959 2.03033 9.77297L6.27308 5.53022C6.41369 5.38958 6.49267 5.19885 6.49267 4.99998C6.49267 4.8011 6.41369 4.61037 6.27308 4.46973L2.03033 0.226975C1.88969 0.0863718 1.69896 0.00738525 1.50008 0.00738525C1.30121 0.00738525 1.11048 0.0863718 0.969834 0.226975Z" fill="black"/>
</svg>
